<svg width="62" height="45" viewBox="0 0 62 45" fill="none" xmlns="http://www.w3.org/2000/svg">
<path d="M0.561933 42.1639C3.18429 39.3908 5.24471 36.8067 6.7432 34.4118C8.24169 32.0168 8.99093 30.063 8.99093 28.5504C8.99093 27.6681 8.67875 26.8487 8.05438 26.0924C7.55488 25.3361 6.7432 24.5168 5.61934 23.6344C3.8711 22.2479 2.49748 20.7983 1.49849 19.2857C0.499497 17.7731 0 15.7563 0 13.2353C0 9.32772 1.1863 6.17647 3.55891 3.78151C5.93151 1.2605 8.9285 0 12.5498 0C16.4209 0 19.5428 1.2605 21.9154 3.78151C24.4129 6.17647 25.6616 9.32772 25.6616 13.2353C25.6616 18.1513 23.6012 23.5714 19.4804 29.4958C15.4844 35.2941 10.1148 40.4622 3.3716 45L0.561933 42.1639ZM36.9003 42.1639C39.5227 39.3908 41.5831 36.8067 43.0816 34.4118C44.5801 32.0168 45.3293 30.063 45.3293 28.5504C45.3293 27.6681 45.0171 26.8487 44.3927 26.0924C43.8933 25.3361 43.0816 24.5168 41.9577 23.6344C40.2095 22.2479 38.8358 20.7983 37.8369 19.2857C36.8379 17.7731 36.3384 15.7563 36.3384 13.2353C36.3384 9.32772 37.5247 6.17647 39.8973 3.78151C42.2699 1.2605 45.2669 0 48.8882 0C52.7593 0 55.8812 1.2605 58.2538 3.78151C60.7513 6.17647 62 9.32772 62 13.2353C62 18.1513 59.9396 23.5714 55.8187 29.4958C51.8228 35.2941 46.4532 40.4622 39.71 45L36.9003 42.1639Z" fill="#B4D51E"/>
</svg>
