<svg width="459" height="498" viewBox="0 0 459 498" fill="none" xmlns="http://www.w3.org/2000/svg">
<path fill-rule="evenodd" clip-rule="evenodd" d="M353.525 109.188C377.335 139.337 358.91 186.142 360.068 226.171C361.178 264.545 383.737 310.344 360.16 338.535C335.748 367.725 289.546 337.995 255.608 351.079C224.172 363.198 207.421 408.933 174.16 410.243C138.695 411.639 104.665 387.868 81.73 357.926C58.6479 327.793 44.7256 286.973 49.7696 247.851C54.4638 211.443 85.214 188.552 107.134 160.892C125.19 138.109 141.452 113.928 166.194 100.943C192.246 87.2695 220.701 84.9035 249.504 86.1713C285.726 87.7657 329.68 78.9955 353.525 109.188Z" fill="#FFC735" fill-opacity="0.43"/>
<path d="M99.9751 330.335C99.9751 330.335 95.5034 325.998 90.8779 324.516C86.2524 323.033 80.9208 323.003 76.3133 321.611C71.7059 320.219 68.9541 319.047 68.9541 319.047L68.7188 323.654L99.785 332.939L121.039 326.429L123.157 321.651C120.841 322.844 118.412 323.748 115.916 324.345C111.29 325.557 106.112 325.557 103.243 326.779C100.373 328.001 99.9751 330.335 99.9751 330.335Z" fill="white" stroke="#263238" stroke-linecap="round" stroke-linejoin="round"/>
<path d="M68.2836 320.089C74.3563 322.144 80.581 323.602 86.8854 324.446C91.6271 325.158 96.1294 327.183 99.9745 330.335C103.102 328.123 106.703 326.865 110.411 326.689C114.872 326.315 119.273 325.323 123.51 323.734L122.179 326.739L99.3499 331.687L67.8129 322.573L68.2836 320.089Z" fill="white" stroke="#263238" stroke-linecap="round" stroke-linejoin="round"/>
<path d="M67.424 321.13C72.249 323.176 77.3049 324.481 82.4502 325.007C90.8504 325.708 99.7394 330.335 99.7394 330.335C103.178 328.416 106.952 327.35 110.801 327.21C115.12 327.169 119.417 326.526 123.591 325.297C123.461 325.777 123.429 326.282 123.496 326.778C123.563 327.273 123.729 327.745 123.981 328.162L99.6579 333.891L67.261 323.474L67.424 321.13Z" fill="white" stroke="#263238" stroke-linecap="round" stroke-linejoin="round"/>
<path d="M67.0262 323.043L98.6446 331.808V333.009L101.306 333.09V331.707L124.687 327.621C124.687 327.621 125.71 327.36 124.841 328.622C123.972 329.884 108.919 344.428 108.919 344.428L92.2087 346.331L66.8632 340.171L67.0262 323.043Z" fill="#FFC735"/>
<path opacity="0.3" d="M98.6455 333.029V331.808L67.0271 323.043L66.8732 340.231L92.2096 346.391L92.6622 346.341L99.3515 333.05L98.6455 333.029Z" fill="black"/>
<path d="M67.0262 323.043L98.6446 331.808V333.009L101.306 333.09V331.707L124.687 327.621C124.687 327.621 125.71 327.36 124.841 328.622C123.972 329.884 108.919 344.428 108.919 344.428L92.2087 346.331L66.8632 340.171L67.0262 323.043Z" stroke="#263238" stroke-linecap="round" stroke-linejoin="round"/>
<path d="M98.6445 333.029L91.6564 346.391L92.9961 346.481L101.306 333.11L98.6445 333.029Z" fill="#FFC735" stroke="#263238" stroke-linecap="round" stroke-linejoin="round"/>
<path d="M97.5218 414.491C97.5218 414.491 96.0011 418.017 93.9735 419.629C91.9459 421.242 89.357 422.003 87.3113 423.556C86.2001 424.388 85.136 425.294 84.125 426.27L83.3103 423.205L97.0149 412.758L108.375 414.281L110.131 417.206C108.862 416.73 107.541 416.447 106.203 416.364C103.768 416.174 101.242 416.875 99.64 416.444C99.1784 416.312 98.7489 416.069 98.3826 415.731C98.0163 415.393 97.7223 414.97 97.5218 414.491Z" fill="white" stroke="#263238" stroke-linecap="round" stroke-linejoin="round"/>
<path d="M83.6274 425.659C86.2309 423.493 89.0529 421.667 92.0366 420.22C94.3434 418.963 96.2548 416.967 97.5221 414.491C99.2575 415.492 101.239 415.843 103.17 415.493C105.444 415.147 107.753 415.221 110.005 415.713L108.891 413.84L97.0152 413.64L83.0209 424.027L83.6274 425.659Z" fill="white" stroke="#263238" stroke-linecap="round" stroke-linejoin="round"/>
<path d="M83.0481 425.078C85.0292 423.101 87.3128 421.531 89.7918 420.441C93.7747 418.838 97.4136 414.521 97.4136 414.521C99.2787 415.328 101.311 415.539 103.279 415.132C105.417 414.578 107.624 414.433 109.806 414.701C109.532 414.08 109.446 413.378 109.561 412.698L96.8343 412.137L82.6136 423.526L83.0481 425.078Z" fill="white" stroke="#263238" stroke-linecap="round" stroke-linejoin="round"/>
<path d="M82.532 423.846L96.6168 413.67L96.4267 412.859L97.7212 412.438L97.9294 413.369L109.95 412.969C109.95 412.969 110.484 412.969 109.869 412.248C109.253 411.526 99.7307 403.744 99.7307 403.744L91.2852 404.745L79.8617 412.308L82.532 423.846Z" fill="#FFC735"/>
<path opacity="0.3" d="M96.4631 412.859L96.6531 413.67L82.5683 423.846L79.8708 412.278L91.2944 404.715L91.5207 404.685L96.807 412.748L96.4631 412.859Z" fill="black"/>
<path d="M82.532 423.846L96.6168 413.67L96.4267 412.859L97.7212 412.438L97.9294 413.369L109.95 412.969C109.95 412.969 110.484 412.969 109.869 412.248C109.253 411.526 99.7307 403.744 99.7307 403.744L91.2852 404.745L79.8617 412.308L82.532 423.846Z" stroke="#263238" stroke-linecap="round" stroke-linejoin="round"/>
<path d="M96.4629 412.858L91.0317 404.785L91.6654 404.545L97.7573 412.438L96.4629 412.858Z" fill="#FFC735" stroke="#263238" stroke-linecap="round" stroke-linejoin="round"/>
<path d="M308.124 306.677L333.687 335.323L279.104 352.341L275.492 323.624L308.124 306.677Z" fill="#FFC735" stroke="#263238" stroke-linecap="round" stroke-linejoin="round"/>
<path d="M330.745 339.46L274.288 357.82L278.841 324.806L307.328 310.743L330.745 339.46Z" fill="white" stroke="#263238" stroke-linecap="round" stroke-linejoin="round"/>
<path d="M308.668 312.526L329.668 342.575L276.696 359.592L282.852 323.474L308.668 312.526Z" fill="white"/>
<path opacity="0.17" d="M308.668 312.526L329.668 342.575L276.696 359.592L282.852 323.474L308.668 312.526Z" fill="black"/>
<path d="M308.668 312.526L329.668 342.575L276.696 359.592L282.852 323.474L308.668 312.526Z" stroke="#263238" stroke-linecap="round" stroke-linejoin="round"/>
<path d="M308.668 312.526L299.036 349.526L261.444 362.117L275.89 328.061L308.668 312.526Z" fill="white" stroke="#263238" stroke-linecap="round" stroke-linejoin="round"/>
<path d="M296.366 346.571L260.113 360.043L259.036 354.414L292.618 341.093L296.366 346.571Z" fill="white" stroke="#263238" stroke-linecap="round" stroke-linejoin="round"/>
<path d="M307.735 307.488L331.813 335.173L330.745 339.46L308.668 312.526L296.366 346.571L292.618 341.093L307.735 307.488Z" fill="white" stroke="#263238" stroke-linecap="round" stroke-linejoin="round"/>
<path d="M308.125 306.677L292.754 342.134L257.298 355.456L275.492 323.624L308.125 306.677Z" fill="#FFC735"/>
<path opacity="0.3" d="M308.125 306.677L292.754 342.134L257.298 355.456L275.492 323.624L308.125 306.677Z" fill="black"/>
<path d="M308.125 306.677L292.754 342.134L257.298 355.456L275.492 323.624L308.125 306.677Z" stroke="#263238" stroke-linecap="round" stroke-linejoin="round"/>
<path d="M274.026 326.89L302.549 312.486" stroke="#263238" stroke-linecap="round" stroke-linejoin="round"/>
<path d="M189.363 409.613L215.541 373.976L161.537 371.171L157.238 401.11L189.363 409.613Z" fill="#FFC735" stroke="#263238" stroke-linecap="round" stroke-linejoin="round"/>
<path d="M212.708 370.57L156.867 366.914L160.596 399.036L188.666 405.727L212.708 370.57Z" fill="white" stroke="#263238" stroke-linecap="round" stroke-linejoin="round"/>
<path d="M190.042 403.574L211.712 367.706L159.311 364.48L164.57 399.317L190.042 403.574Z" fill="white"/>
<path opacity="0.17" d="M190.042 403.574L211.712 367.706L159.311 364.48L164.57 399.317L190.042 403.574Z" fill="black"/>
<path d="M190.042 403.574L211.712 367.706L159.311 364.48L164.57 399.317L190.042 403.574Z" stroke="#263238" stroke-linecap="round" stroke-linejoin="round"/>
<path d="M190.042 403.574L181.343 368.757L144.167 365.963L157.745 396.522L190.042 403.574Z" fill="white" stroke="#263238" stroke-linecap="round" stroke-linejoin="round"/>
<path d="M178.6 372.453L142.782 368.407L141.578 374.366L174.735 378.964L178.6 372.453Z" fill="white" stroke="#263238" stroke-linecap="round" stroke-linejoin="round"/>
<path d="M188.983 408.902L213.668 374.617L212.708 370.57L190.042 403.574L178.6 372.453L174.735 378.964L188.983 408.902Z" fill="white" stroke="#263238" stroke-linecap="round" stroke-linejoin="round"/>
<path d="M189.363 409.613L174.889 377.882L139.867 373.775L157.238 401.11L189.363 409.613Z" fill="#FFC735"/>
<path opacity="0.3" d="M189.363 409.613L174.889 377.882L139.867 373.775L157.238 401.11L189.363 409.613Z" fill="black"/>
<path d="M189.363 409.613L174.889 377.882L139.867 373.775L157.238 401.11L189.363 409.613Z" stroke="#263238" stroke-linecap="round" stroke-linejoin="round"/>
<path d="M154.568 397.163L183.09 403.804" stroke="#263238" stroke-linecap="round" stroke-linejoin="round"/>
<path d="M210.59 169.976C210.59 169.976 198.732 176.316 193.989 183.999C189.245 191.681 190.63 205.864 197.935 210.451C205.24 215.039 230.74 231.886 248.726 229.482C266.712 227.078 263.942 206.735 254.854 198.642C245.766 190.549 233.509 183.338 233.509 183.338C233.509 183.338 232.921 178.971 232.124 177.438C231.328 175.906 222.249 166.04 210.59 169.976Z" fill="#263238" stroke="#263238" stroke-linecap="round" stroke-linejoin="round"/>
<path d="M258.728 203.43C231.808 194.315 214.075 210.632 208.517 216.882C219.651 223.282 236.053 231.145 248.726 229.452C263.77 227.439 264.286 212.865 258.728 203.43Z" fill="white" stroke="#263238" stroke-linecap="round" stroke-linejoin="round"/>
<path d="M240.425 201.026C240.425 201.026 256.239 215.049 250.699 229.011" stroke="#263238" stroke-linecap="round" stroke-linejoin="round"/>
<path d="M188.521 163.866L182.185 196.569H187.281L199.845 170.797C199.845 170.797 197.392 162.534 188.521 163.866Z" fill="white" stroke="#263238" stroke-linecap="round" stroke-linejoin="round"/>
<path d="M268.16 148C262.974 140.989 256.121 134.489 243.566 133.377C243.566 133.377 232.867 133.006 218.311 139.857C206.933 145.206 194.776 156.885 188.521 163.896C194.115 165.469 197.447 168.003 199.854 170.827C202.335 168.213 204.498 165.939 206.091 164.507C211.45 159.689 219.316 155.623 219.316 155.623C219.316 155.623 210.78 168.574 209.105 171.909C207.431 175.245 208.608 180.613 217.469 182.096C226.331 183.578 228.513 181.725 232.025 179.501C235.537 177.278 239.891 175.245 241.566 175.245C244.912 175.507 248.234 174.442 250.935 172.24C255.279 168.904 257.126 159.469 258.629 158.728C259.661 158.217 268.794 171.398 275.909 181.294L276.524 180.944C279.62 179.181 282.037 175.585 283.693 172.42C277.936 163.115 271.519 152.548 268.16 148Z" fill="#FFC735" stroke="#263238" stroke-linecap="round" stroke-linejoin="round"/>
<path d="M238.171 139.597C238.171 139.597 234.623 149.042 241.729 152.618" stroke="#263238" stroke-linecap="round" stroke-linejoin="round"/>
<path d="M219.316 155.593L227.028 153.069" stroke="#263238" stroke-linecap="round" stroke-linejoin="round"/>
<path d="M219.216 172.069C219.216 172.069 224.077 176.817 235.456 171.448" stroke="#263238" stroke-linecap="round" stroke-linejoin="round"/>
<path d="M263.616 155.132C260.81 155.543 258.629 158.738 258.629 158.738C261.867 157.975 265.159 157.529 268.468 157.406" stroke="#263238" stroke-linecap="round" stroke-linejoin="round"/>
<path d="M219.569 156.374C219.569 156.374 224.792 156.374 229.834 156.164" stroke="#263238" stroke-linecap="round" stroke-linejoin="round"/>
<path d="M222.367 169.585C222.367 169.585 222.928 173.311 230.206 172.891" stroke="#263238" stroke-linecap="round" stroke-linejoin="round"/>
<path d="M241.729 136.522C241.729 136.522 240.561 143.183 241.394 146.698C242.226 150.214 245.241 154.291 247.422 150.034C249.604 145.777 250.762 141.019 250.762 138.746C250.762 136.472 243.231 132.265 241.729 136.522Z" fill="white" stroke="#263238" stroke-linecap="round" stroke-linejoin="round"/>
<path d="M258.629 128.188C258.629 128.188 263.308 127.077 267.327 121.337C271.347 115.598 266.16 114.867 264.485 109.318C262.811 103.769 268.703 105.612 260.176 95.9864C251.65 86.3609 237.755 89.6963 231.21 92.8414C224.666 95.9864 224.874 106.543 220.176 107.285C215.478 108.026 213.477 103.028 207.793 103.028C202.108 103.028 196.08 109.689 198.424 115.238C200.769 120.787 205.285 118.393 205.62 117.461C205.955 116.53 203.276 117.651 203.104 114.867C202.932 112.082 209.124 113.575 210.97 117.281C212.464 120.286 209.721 124.553 209.811 127.708C210.002 134.038 217.008 138.084 221.507 138.956C227.58 140.128 234.967 139.717 240.47 136.382C247.232 132.275 244.091 123.761 249.07 121.538C254.048 119.314 256.601 122.65 256.601 122.65L258.629 128.188Z" fill="#263238" stroke="#263238" stroke-linecap="round" stroke-linejoin="round"/>
<path d="M207.494 106.463C206.632 106.049 205.684 105.905 204.753 106.049C203.822 106.192 202.944 106.616 202.217 107.275" stroke="white" stroke-linecap="round" stroke-linejoin="round"/>
<path d="M252.139 111.652C252.139 111.652 252.138 100.634 245.15 98.3903C238.162 96.1467 230.178 106.123 226.141 112.413C222.104 118.703 216.184 117.201 211.83 110.57C211.421 109.931 210.967 109.328 210.472 108.767" stroke="white" stroke-linecap="round" stroke-linejoin="round"/>
<path d="M212.536 132.315C216.157 134.889 218.873 135.631 224.186 133.788C229.5 131.945 228.848 122.369 233.501 117.221C238.153 112.072 246.481 113.905 246.481 113.905C246.481 113.905 237.167 108.376 229.844 114.266C222.521 120.156 223.181 130.102 216.528 131.945" stroke="white" stroke-linecap="round" stroke-linejoin="round"/>
<path d="M256.8 112.794C256.8 112.794 263.136 110.951 262.792 104.691" stroke="white" stroke-linecap="round" stroke-linejoin="round"/>
<path d="M204.661 183.768C204.661 183.768 221.86 186.172 230.549 192.783" stroke="white" stroke-linecap="round" stroke-linejoin="round"/>
<path d="M253.17 115.177C252.099 114.837 250.962 114.846 249.895 115.201C248.827 115.556 247.875 116.243 247.151 117.181C244.309 120.506 244.435 122.189 242.064 124.262C241.356 124.946 240.465 125.354 239.527 125.421C238.589 125.488 237.658 125.211 236.877 124.633C235.872 124.082 234.704 124.452 234.37 127.037C234.035 129.621 237.212 131.664 237.719 131.664C238.223 131.694 238.724 131.758 239.221 131.854C239.221 131.854 239.221 136.482 242.064 139.256C244.906 142.031 250.6 146.478 254.447 145.557C258.294 144.635 259.796 134.819 259.796 129.821C259.656 124.753 258.753 119.747 257.126 115.007C255.949 112.082 253.17 115.177 253.17 115.177Z" fill="white" stroke="#263238" stroke-linecap="round" stroke-linejoin="round"/>
<path d="M249.993 126.426C249.993 127.427 249.667 128.289 249.251 128.289C248.834 128.289 248.5 127.457 248.5 126.426C248.5 125.394 248.834 124.573 249.251 124.573C249.667 124.573 249.993 125.404 249.993 126.426Z" fill="#263238"/>
<path d="M255.958 125.805C255.958 126.806 255.623 127.668 255.216 127.668C254.809 127.668 254.465 126.836 254.465 125.805C254.465 124.773 254.8 123.952 255.216 123.952C255.632 123.952 255.958 124.783 255.958 125.805Z" fill="#263238"/>
<path d="M246.445 122.67C246.445 122.67 247.558 120.817 250.364 121.668" stroke="#263238" stroke-linecap="round" stroke-linejoin="round"/>
<path d="M253.532 121.668C253.532 121.668 255.397 119.394 257.081 121.668" stroke="#263238" stroke-linecap="round" stroke-linejoin="round"/>
<path d="M253.351 125.805C253.351 125.805 253.532 129.941 254.655 129.941C255.777 129.941 255.397 131.794 253.904 132.415" stroke="#263238" stroke-linecap="round" stroke-linejoin="round"/>
<path d="M252.41 136.552C252.41 136.552 249.052 138.205 247.748 134.479" stroke="#263238" stroke-linecap="round" stroke-linejoin="round"/>
<path d="M253.197 227.98C253.197 227.98 234.188 209.53 214.491 203.25C194.794 196.97 172.128 199.924 152.44 194.025C132.752 188.125 121.419 180.002 121.419 180.002L120.414 199.564L252.573 239.068L342.984 211.383L351.99 191.08C351.99 191.08 340.983 197.35 321.295 202.519C301.607 207.687 279.548 207.677 267.192 212.815C254.836 217.954 253.197 227.98 253.197 227.98Z" fill="white" stroke="#263238" stroke-linecap="round" stroke-linejoin="round"/>
<path d="M118.414 184.419C118.414 184.419 140.465 199.193 190.142 204.362C222.864 207.757 253.197 227.98 253.197 227.98C266.489 218.576 281.791 213.227 297.552 212.475C323.576 211.373 353.267 199.924 353.267 199.924L347.609 212.815L250.527 233.849L116.414 195.087L118.414 184.419Z" fill="white" stroke="#263238" stroke-linecap="round" stroke-linejoin="round"/>
<path d="M114.748 188.857C133.516 198.236 153.603 203.969 174.129 205.804C209.821 208.759 252.193 227.95 252.193 227.95C252.193 227.95 274.542 214.668 299.263 214.668C317.624 214.495 335.893 211.766 353.638 206.545C353.086 208.585 352.949 210.736 353.237 212.841C353.525 214.947 354.231 216.956 355.303 218.725L251.858 243.114L114.078 198.793L114.748 188.857Z" fill="white" stroke="#263238" stroke-linecap="round" stroke-linejoin="round"/>
<path d="M115.418 197.621L247.522 234.26V239.428L258.864 239.799V233.849L358.281 216.501C358.281 216.501 362.617 215.389 358.951 220.928C355.285 226.467 291.225 288.117 291.225 288.117L220.167 296.24L112.404 270.068L113.046 199.644C113.048 199.325 113.116 199.01 113.244 198.724C113.372 198.438 113.558 198.188 113.786 197.993C114.015 197.798 114.281 197.663 114.563 197.598C114.846 197.534 115.138 197.542 115.418 197.621Z" fill="#B4D51E"/>
<path opacity="0.3" d="M247.523 239.428V234.26L113.074 196.98L112.414 270.068L220.168 296.28L222.096 296.06L250.537 239.528L247.523 239.428Z" fill="black"/>
<path d="M115.418 197.621L247.522 234.26V239.428L258.864 239.799V233.849L358.281 216.501C358.281 216.501 362.617 215.389 358.951 220.928C355.285 226.467 291.225 288.117 291.225 288.117L220.167 296.24L112.404 270.068L113.046 199.644C113.048 199.325 113.116 199.01 113.244 198.724C113.372 198.438 113.558 198.188 113.786 197.993C114.015 197.798 114.281 197.663 114.563 197.598C114.846 197.534 115.138 197.542 115.418 197.621Z" stroke="#263238" stroke-linecap="round" stroke-linejoin="round"/>
<path d="M247.522 239.428L217.832 296.28L223.507 296.641L258.864 239.799L247.522 239.428Z" fill="#B4D51E" stroke="#263238" stroke-linecap="round" stroke-linejoin="round"/>
<path d="M346.614 218.825C346.614 218.825 355.475 220.658 353.629 227.198L358.951 220.948C358.951 220.948 361.386 217.593 360.273 216.942C359.16 216.291 346.614 218.825 346.614 218.825Z" fill="#263238"/>
<path d="M127.664 201.337C127.664 201.337 115.128 205.173 113.181 215.54L113.073 199.644C113.073 199.644 113.453 197.25 115.435 197.641C117.418 198.031 127.664 201.337 127.664 201.337Z" fill="#263238"/>
<path d="M112.531 265.2L118.831 271.841L112.414 270.068L112.531 265.2Z" fill="#263238"/>
<path d="M286.69 288.588L295.235 283.94L290.736 288.257L286.69 288.588Z" fill="#263238"/>
<path d="M283.694 172.43L307.736 204.322L301.68 205.383L275.909 181.344C275.909 181.344 282.58 176.507 283.694 172.43Z" fill="white" stroke="#263238" stroke-linecap="round" stroke-linejoin="round"/>
<path d="M177.08 193.644C177.08 193.644 175.876 192.032 175.568 193.474C175.26 194.916 172.536 199.924 174.663 200.275C176.79 200.626 177.994 194.906 177.994 194.906L177.08 193.644Z" fill="white" stroke="#263238" stroke-linecap="round" stroke-linejoin="round"/>
<path d="M179.958 193.454C179.958 193.454 178.745 191.841 178.446 193.274C178.148 194.706 175.414 199.724 177.541 200.085C179.668 200.445 180.881 194.706 180.881 194.706L179.958 193.454Z" fill="white" stroke="#263238" stroke-linecap="round" stroke-linejoin="round"/>
<path d="M182.846 193.334C182.846 193.334 181.406 191.541 181.035 193.133C180.664 194.726 177.415 200.295 179.958 200.696C182.502 201.096 183.914 194.686 183.914 194.686L182.846 193.334Z" fill="white" stroke="#263238" stroke-linecap="round" stroke-linejoin="round"/>
<path d="M185.362 193.935L190.214 199.103H184.466L185.362 193.935Z" fill="white" stroke="#263238" stroke-linecap="round" stroke-linejoin="round"/>
<path d="M185.362 193.935C185.362 193.935 183.923 192.142 183.552 193.734C183.181 195.327 179.931 200.896 182.475 201.287C185.018 201.677 186.43 195.277 186.43 195.277L185.362 193.935Z" fill="white" stroke="#263238" stroke-linecap="round" stroke-linejoin="round"/>
<path d="M314.262 198.572C314.262 198.572 315.231 196.769 315.737 198.132C316.244 199.494 319.639 203.981 317.602 204.702C315.565 205.423 313.547 199.974 313.547 199.974L314.262 198.572Z" fill="white" stroke="#263238" stroke-linecap="round" stroke-linejoin="round"/>
<path d="M311.419 198.873C311.419 198.873 312.388 197.07 312.895 198.432C313.402 199.794 316.805 204.281 314.76 205.003C312.714 205.724 310.704 200.275 310.704 200.275L311.419 198.873Z" fill="white" stroke="#263238" stroke-linecap="round" stroke-linejoin="round"/>
<path d="M308.559 199.263C308.559 199.263 309.727 197.26 310.306 198.753C310.885 200.245 314.832 205.203 312.442 206.034C310.053 206.866 307.69 200.826 307.69 200.826L308.559 199.263Z" fill="white" stroke="#263238" stroke-linecap="round" stroke-linejoin="round"/>
<path d="M306.16 200.295L302.096 206.245L307.781 205.243L306.16 200.295Z" fill="white" stroke="#263238" stroke-linecap="round" stroke-linejoin="round"/>
<path d="M306.16 200.295C306.16 200.295 307.319 198.292 307.907 199.784C308.496 201.277 312.433 206.225 310.044 207.056C307.654 207.887 305.291 201.858 305.291 201.858L306.16 200.295Z" fill="white" stroke="#263238" stroke-linecap="round" stroke-linejoin="round"/>
<path d="M141.252 253.791L147.045 252.79L141.252 251.788C140.742 251.703 140.27 251.439 139.905 251.035C139.54 250.631 139.302 250.109 139.224 249.545L138.319 243.124L137.414 249.545C137.337 250.108 137.1 250.629 136.737 251.032C136.374 251.436 135.904 251.701 135.395 251.788L129.593 252.79L135.395 253.791C135.902 253.883 136.37 254.15 136.732 254.552C137.095 254.955 137.333 255.474 137.414 256.035L138.319 262.455L139.224 256.035C139.306 255.472 139.545 254.953 139.909 254.55C140.274 254.147 140.743 253.881 141.252 253.791Z" fill="white"/>
<path d="M97.9745 297.282L103.777 296.28L97.9745 295.278C97.4665 295.187 96.9974 294.921 96.6335 294.519C96.2697 294.116 96.0294 293.597 95.9468 293.035L95.0416 286.614L94.1364 293.035C94.0578 293.599 93.8189 294.12 93.4543 294.524C93.0897 294.927 92.6184 295.191 92.1088 295.278L86.3065 296.28L92.1088 297.282C92.6184 297.369 93.0897 297.633 93.4543 298.037C93.8189 298.44 94.0578 298.961 94.1364 299.525L95.0416 305.946L95.9468 299.525C96.0294 298.963 96.2697 298.444 96.6335 298.042C96.9974 297.639 97.4665 297.373 97.9745 297.282Z" fill="#463C74"/>
<path opacity="0.5" d="M97.9745 297.282L103.777 296.28L97.9745 295.278C97.4665 295.187 96.9974 294.921 96.6335 294.519C96.2697 294.116 96.0294 293.597 95.9468 293.035L95.0416 286.614L94.1364 293.035C94.0578 293.599 93.8189 294.12 93.4543 294.524C93.0897 294.927 92.6184 295.191 92.1088 295.278L86.3065 296.28L92.1088 297.282C92.6184 297.369 93.0897 297.633 93.4543 298.037C93.8189 298.44 94.0578 298.961 94.1364 299.525L95.0416 305.946L95.9468 299.525C96.0294 298.963 96.2697 298.444 96.6335 298.042C96.9974 297.639 97.4665 297.373 97.9745 297.282Z" fill="white"/>
<path d="M242.443 324.055L248.246 323.053L242.443 322.052C241.935 321.965 241.465 321.702 241.1 321.301C240.736 320.899 240.496 320.38 240.416 319.818L239.511 313.398L238.605 319.818C238.525 320.38 238.285 320.899 237.921 321.301C237.556 321.702 237.086 321.965 236.578 322.052L230.775 323.053L236.578 324.055C237.086 324.141 237.556 324.404 237.921 324.806C238.285 325.207 238.525 325.727 238.605 326.289L239.511 332.709L240.416 326.289C240.496 325.727 240.736 325.207 241.1 324.806C241.465 324.404 241.935 324.141 242.443 324.055Z" fill="#463C74"/>
<path opacity="0.5" d="M242.443 324.055L248.246 323.053L242.443 322.052C241.935 321.965 241.465 321.702 241.1 321.301C240.736 320.899 240.496 320.38 240.416 319.818L239.511 313.398L238.605 319.818C238.525 320.38 238.285 320.899 237.921 321.301C237.556 321.702 237.086 321.965 236.578 322.052L230.775 323.053L236.578 324.055C237.086 324.141 237.556 324.404 237.921 324.806C238.285 325.207 238.525 325.727 238.605 326.289L239.511 332.709L240.416 326.289C240.496 325.727 240.736 325.207 241.1 324.806C241.465 324.404 241.935 324.141 242.443 324.055Z" fill="white"/>
<path d="M90.552 263.127L94.39 262.455L90.552 261.784C90.2153 261.727 89.9038 261.552 89.6629 261.286C89.422 261.019 89.2642 260.675 89.2123 260.302L88.6149 256.065L88.0084 260.302C87.9565 260.675 87.7987 261.019 87.5578 261.286C87.3169 261.552 87.0054 261.727 86.6687 261.784L82.8307 262.455L86.6687 263.127C87.0054 263.184 87.3169 263.359 87.5578 263.625C87.7987 263.892 87.9565 264.236 88.0084 264.609L88.6149 268.846L89.2123 264.609C89.2642 264.236 89.422 263.892 89.6629 263.625C89.9038 263.359 90.2153 263.184 90.552 263.127Z" fill="#463C74"/>
<path opacity="0.5" d="M90.552 263.127L94.39 262.455L90.552 261.784C90.2153 261.727 89.9038 261.552 89.6629 261.286C89.422 261.019 89.2642 260.675 89.2123 260.302L88.6149 256.065L88.0084 260.302C87.9565 260.675 87.7987 261.019 87.5578 261.286C87.3169 261.552 87.0054 261.727 86.6687 261.784L82.8307 262.455L86.6687 263.127C87.0054 263.184 87.3169 263.359 87.5578 263.625C87.7987 263.892 87.9565 264.236 88.0084 264.609L88.6149 268.846L89.2123 264.609C89.2642 264.236 89.422 263.892 89.6629 263.625C89.9038 263.359 90.2153 263.184 90.552 263.127Z" fill="white"/>
<path d="M339.535 272.502L343.373 271.841L339.535 271.17C339.198 271.111 338.888 270.936 338.647 270.669C338.406 270.403 338.248 270.059 338.195 269.687L337.588 265.44L336.991 269.687C336.938 270.059 336.78 270.403 336.539 270.669C336.298 270.936 335.988 271.111 335.651 271.17L331.813 271.841L335.651 272.502C335.988 272.561 336.298 272.736 336.539 273.002C336.78 273.268 336.938 273.612 336.991 273.984L337.588 278.231L338.195 273.984C338.248 273.612 338.406 273.268 338.647 273.002C338.888 272.736 339.198 272.561 339.535 272.502Z" fill="#463C74"/>
<path opacity="0.5" d="M339.535 272.502L343.373 271.841L339.535 271.17C339.198 271.111 338.888 270.936 338.647 270.669C338.406 270.403 338.248 270.059 338.195 269.687L337.588 265.44L336.991 269.687C336.938 270.059 336.78 270.403 336.539 270.669C336.298 270.936 335.988 271.111 335.651 271.17L331.813 271.841L335.651 272.502C335.988 272.561 336.298 272.736 336.539 273.002C336.78 273.268 336.938 273.612 336.991 273.984L337.588 278.231L338.195 273.984C338.248 273.612 338.406 273.268 338.647 273.002C338.888 272.736 339.198 272.561 339.535 272.502Z" fill="white"/>
<path d="M164.135 237.205L167.892 236.554L164.135 235.903C163.805 235.845 163.501 235.674 163.265 235.413C163.029 235.152 162.874 234.815 162.823 234.45L162.225 230.283L161.637 234.45C161.584 234.814 161.429 235.151 161.193 235.411C160.957 235.672 160.653 235.844 160.324 235.903L156.559 236.554L160.324 237.205C160.653 237.263 160.957 237.435 161.193 237.696C161.429 237.957 161.584 238.293 161.637 238.657L162.189 242.864L162.786 238.697C162.833 238.319 162.99 237.969 163.233 237.699C163.477 237.43 163.794 237.256 164.135 237.205Z" fill="white"/>
<path d="M288.59 278.331L292.356 277.67L288.59 277.019C288.261 276.96 287.957 276.789 287.722 276.528C287.486 276.267 287.331 275.931 287.278 275.567L286.689 271.4L286.101 275.567C286.048 275.931 285.893 276.267 285.657 276.528C285.422 276.789 285.118 276.96 284.789 277.019L281.023 277.67L284.789 278.331C285.118 278.388 285.423 278.56 285.659 278.821C285.895 279.082 286.05 279.419 286.101 279.783L286.689 283.94L287.278 279.783C287.329 279.419 287.484 279.082 287.72 278.821C287.956 278.56 288.261 278.388 288.59 278.331Z" fill="white"/>
</svg>
