<svg width="40" height="40" viewBox="0 0 40 40" fill="none" xmlns="http://www.w3.org/2000/svg">
<circle cx="19.875" cy="19.875" r="19.875" fill="#B4D51E"/>
<path d="M24.5625 10.5H15.1875C12.5987 10.5 10.5 12.5987 10.5 15.1875V24.5625C10.5 27.1513 12.5987 29.25 15.1875 29.25H24.5625C27.1513 29.25 29.25 27.1513 29.25 24.5625V15.1875C29.25 12.5987 27.1513 10.5 24.5625 10.5Z" stroke="white" stroke-width="1.875" stroke-linecap="round" stroke-linejoin="round"/>
<path d="M23.625 19.2844C23.7407 20.0646 23.6074 20.8615 23.2441 21.5616C22.8808 22.2617 22.306 22.8295 21.6015 23.1841C20.8969 23.5387 20.0985 23.6622 19.3198 23.5368C18.541 23.4115 17.8216 23.0439 17.2639 22.4861C16.7061 21.9284 16.3385 21.209 16.2132 20.4302C16.0878 19.6515 16.2113 18.8531 16.5659 18.1485C16.9205 17.444 17.4883 16.8692 18.1884 16.5059C18.8885 16.1426 19.6854 16.0093 20.4656 16.125C21.2615 16.2431 21.9983 16.6139 22.5672 17.1828C23.1361 17.7517 23.507 18.4885 23.625 19.2844Z" stroke="white" stroke-width="1.875" stroke-linecap="round" stroke-linejoin="round"/>
<path d="M25.0312 14.7188H25.0415" stroke="white" stroke-width="1.875" stroke-linecap="round" stroke-linejoin="round"/>
</svg>
