<svg width="141" height="20" viewBox="0 0 141 20" fill="none" xmlns="http://www.w3.org/2000/svg">
<path d="M14.4453 7.96484C14.4219 8.56641 14.3008 9.11719 14.082 9.61719C13.8633 10.1172 13.5742 10.5703 13.2148 10.9766C12.8555 11.375 12.4375 11.7344 11.9609 12.0547C11.4844 12.3672 10.9766 12.6367 10.4375 12.8633L13.8477 18.2305L11.4219 19.0273L8.14062 13.5547C7.76562 13.625 7.375 13.6836 6.96875 13.7305C6.57031 13.7773 6.12891 13.8008 5.64453 13.8008C5.25391 13.8008 4.82422 13.7852 4.35547 13.7539C3.89453 13.7148 3.41016 13.6484 2.90234 13.5547L2.94922 18.5234L0.476562 18.6172V2.03516C1.14844 1.83203 1.82031 1.67969 2.49219 1.57812C3.16406 1.47656 3.77734 1.39844 4.33203 1.34375C4.97266 1.28906 5.59375 1.25391 6.19531 1.23828C6.70312 1.23828 7.26562 1.27344 7.88281 1.34375C8.5 1.41406 9.11719 1.53906 9.73438 1.71875C10.3594 1.89844 10.9609 2.14844 11.5391 2.46875C12.125 2.78906 12.6367 3.19922 13.0742 3.69922C13.5195 4.19141 13.8672 4.78906 14.1172 5.49219C14.3672 6.19531 14.4766 7.01953 14.4453 7.96484ZM6.19531 3.59375C5.83594 3.59375 5.46484 3.60938 5.08203 3.64062C4.75391 3.66406 4.39062 3.69922 3.99219 3.74609C3.59375 3.78516 3.20703 3.84766 2.83203 3.93359L2.87891 11.3984C3.24609 11.4688 3.61328 11.5195 3.98047 11.5508C4.35547 11.5742 4.71875 11.5859 5.07031 11.5859C6.00781 11.5859 6.89453 11.4805 7.73047 11.2695C8.57422 11.0508 9.3125 10.7539 9.94531 10.3789C10.5781 10.0039 11.082 9.5625 11.457 9.05469C11.832 8.53906 12.0195 7.98438 12.0195 7.39062C12.0195 6.78906 11.875 6.25391 11.5859 5.78516C11.3047 5.31641 10.9062 4.92188 10.3906 4.60156C9.875 4.27344 9.25781 4.02344 8.53906 3.85156C7.82812 3.67969 7.04688 3.59375 6.19531 3.59375ZM22.6133 17.4219C23.0273 17.4219 23.4375 17.3594 23.8438 17.2344C24.25 17.1016 24.625 16.9141 24.9688 16.6719C25.3125 16.4219 25.6094 16.1133 25.8594 15.7461C26.1172 15.3789 26.3047 14.9531 26.4219 14.4688L28.6836 14.9258C28.4648 15.6367 28.1562 16.2812 27.7578 16.8594C27.3594 17.4375 26.8945 17.9336 26.3633 18.3477C25.832 18.7617 25.2461 19.082 24.6055 19.3086C23.9727 19.5352 23.3086 19.6484 22.6133 19.6484C21.582 19.6484 20.668 19.4922 19.8711 19.1797C19.0742 18.8672 18.4023 18.4258 17.8555 17.8555C17.3086 17.2852 16.8906 16.5977 16.6016 15.793C16.3203 14.9883 16.1797 14.0898 16.1797 13.0977C16.1797 12.1211 16.3438 11.2109 16.6719 10.3672C17.0078 9.51562 17.4648 8.77734 18.043 8.15234C18.6211 7.52734 19.3008 7.03516 20.082 6.67578C20.8633 6.31641 21.707 6.13672 22.6133 6.13672C23.4258 6.13672 24.1914 6.29688 24.9102 6.61719C25.6289 6.92969 26.2656 7.36719 26.8203 7.92969C27.375 8.48438 27.832 9.14062 28.1914 9.89844C28.5508 10.6562 28.7773 11.4766 28.8711 12.3594L18.7227 13.8711C18.7773 14.4258 18.9141 14.9258 19.1328 15.3711C19.3516 15.8086 19.6289 16.1797 19.9648 16.4844C20.3086 16.7891 20.7031 17.0234 21.1484 17.1875C21.6016 17.3438 22.0898 17.4219 22.6133 17.4219ZM25.8477 10.8477L25.7773 10.625C25.4805 9.85156 25.0703 9.24609 24.5469 8.80859C24.0312 8.37109 23.3867 8.15234 22.6133 8.15234C22.2852 8.15234 21.9258 8.21094 21.5352 8.32812C21.1445 8.4375 20.7656 8.62891 20.3984 8.90234C20.0312 9.17578 19.6992 9.54297 19.4023 10.0039C19.1133 10.457 18.9102 11.0234 18.793 11.7031L25.8477 10.8477ZM42.1367 6.61719L37.5312 18.957L34.2266 18.9102L30.1133 7.07422L32.4922 6.71094L35.9961 16.7773L39.7227 6.28906L42.1367 6.61719ZM47.5156 2.87891C47.5156 3.10547 47.4688 3.32031 47.375 3.52344C47.2891 3.72656 47.168 3.90234 47.0117 4.05078C46.8633 4.19922 46.6875 4.31641 46.4844 4.40234C46.2812 4.48828 46.0625 4.53125 45.8281 4.53125C45.6016 4.53125 45.3867 4.48828 45.1836 4.40234C44.9883 4.31641 44.8125 4.19922 44.6562 4.05078C44.5078 3.90234 44.3906 3.72656 44.3047 3.52344C44.2188 3.32031 44.1758 3.10547 44.1758 2.87891C44.1758 2.64453 44.2188 2.42578 44.3047 2.22266C44.3906 2.01953 44.5078 1.84375 44.6562 1.69531C44.8125 1.53906 44.9883 1.41797 45.1836 1.33203C45.3867 1.23828 45.6016 1.19141 45.8281 1.19141C46.0625 1.19141 46.2812 1.23828 46.4844 1.33203C46.6875 1.41797 46.8633 1.53906 47.0117 1.69531C47.168 1.84375 47.2891 2.01953 47.375 2.22266C47.4688 2.42578 47.5156 2.64453 47.5156 2.87891ZM46.9648 7.00391C46.9414 8.12109 46.918 9.14844 46.8945 10.0859C46.8789 11.0156 46.8633 11.8633 46.8477 12.6289C46.832 13.3945 46.8164 14.082 46.8008 14.6914C46.793 15.293 46.7852 15.8203 46.7773 16.2734C46.7539 17.3516 46.7422 18.1992 46.7422 18.8164H44.3398C44.3555 17.9727 44.375 16.9688 44.3984 15.8047C44.4141 14.8047 44.4336 13.582 44.457 12.1367C44.4883 10.6914 44.5156 9.01172 44.5391 7.09766L46.9648 7.00391ZM55.9648 17.4219C56.3789 17.4219 56.7891 17.3594 57.1953 17.2344C57.6016 17.1016 57.9766 16.9141 58.3203 16.6719C58.6641 16.4219 58.9609 16.1133 59.2109 15.7461C59.4688 15.3789 59.6562 14.9531 59.7734 14.4688L62.0352 14.9258C61.8164 15.6367 61.5078 16.2812 61.1094 16.8594C60.7109 17.4375 60.2461 17.9336 59.7148 18.3477C59.1836 18.7617 58.5977 19.082 57.957 19.3086C57.3242 19.5352 56.6602 19.6484 55.9648 19.6484C54.9336 19.6484 54.0195 19.4922 53.2227 19.1797C52.4258 18.8672 51.7539 18.4258 51.207 17.8555C50.6602 17.2852 50.2422 16.5977 49.9531 15.793C49.6719 14.9883 49.5312 14.0898 49.5312 13.0977C49.5312 12.1211 49.6953 11.2109 50.0234 10.3672C50.3594 9.51562 50.8164 8.77734 51.3945 8.15234C51.9727 7.52734 52.6523 7.03516 53.4336 6.67578C54.2148 6.31641 55.0586 6.13672 55.9648 6.13672C56.7773 6.13672 57.543 6.29688 58.2617 6.61719C58.9805 6.92969 59.6172 7.36719 60.1719 7.92969C60.7266 8.48438 61.1836 9.14062 61.543 9.89844C61.9023 10.6562 62.1289 11.4766 62.2227 12.3594L52.0742 13.8711C52.1289 14.4258 52.2656 14.9258 52.4844 15.3711C52.7031 15.8086 52.9805 16.1797 53.3164 16.4844C53.6602 16.7891 54.0547 17.0234 54.5 17.1875C54.9531 17.3438 55.4414 17.4219 55.9648 17.4219ZM59.1992 10.8477L59.1289 10.625C58.832 9.85156 58.4219 9.24609 57.8984 8.80859C57.3828 8.37109 56.7383 8.15234 55.9648 8.15234C55.6367 8.15234 55.2773 8.21094 54.8867 8.32812C54.4961 8.4375 54.1172 8.62891 53.75 8.90234C53.3828 9.17578 53.0508 9.54297 52.7539 10.0039C52.4648 10.457 52.2617 11.0234 52.1445 11.7031L59.1992 10.8477ZM80.1523 6.66406L77.8203 18.9102L74.3398 19.0039L72.2773 10.3906L69.4414 18.5938L65.9375 18.8633L63.6641 6.71094L66.0781 6.52344L67.8594 16.3672L71.3398 6.52344L73.5898 6.66406L75.9688 16.625L77.5508 6.57031L80.1523 6.66406Z" fill="#463C74"/>
<path d="M97.7422 13.918C97.7656 14.7461 97.6328 15.457 97.3438 16.0508C97.0547 16.6445 96.6602 17.1445 96.1602 17.5508C95.668 17.9492 95.0898 18.2695 94.4258 18.5117C93.7695 18.7617 93.0781 18.9492 92.3516 19.0742C91.6328 19.207 90.9062 19.293 90.1719 19.332C89.4375 19.3711 88.75 19.3906 88.1094 19.3906C87.4609 19.3906 86.7383 19.3711 85.9414 19.332C85.1523 19.3008 84.2852 19.2461 83.3398 19.168L82.8359 2.10547C83.6484 1.95703 84.4375 1.84766 85.2031 1.77734C85.9688 1.69922 86.6523 1.64453 87.2539 1.61328C87.957 1.58203 88.6211 1.57031 89.2461 1.57812C89.8398 1.59375 90.4375 1.62891 91.0391 1.68359C91.6406 1.73828 92.2148 1.83203 92.7617 1.96484C93.3164 2.08984 93.832 2.26562 94.3086 2.49219C94.7852 2.71875 95.1992 3.00781 95.5508 3.35938C95.9023 3.71094 96.1797 4.13672 96.3828 4.63672C96.5859 5.12891 96.6875 5.71094 96.6875 6.38281C96.6875 7.25781 96.5273 8.00781 96.207 8.63281C95.8867 9.25 95.4688 9.76172 94.9531 10.168C95.2812 10.2773 95.5742 10.4141 95.832 10.5781C96.0898 10.7344 96.3125 10.9102 96.5 11.1055C96.6953 11.3008 96.8594 11.5078 96.9922 11.7266C97.1328 11.9375 97.25 12.1484 97.3438 12.3594C97.5547 12.8438 97.6875 13.3633 97.7422 13.918ZM89.293 3.71094C88.9258 3.71094 88.5273 3.72266 88.0977 3.74609C87.7305 3.76172 87.3086 3.79297 86.832 3.83984C86.3633 3.88672 85.8633 3.94922 85.332 4.02734L85.5195 10.0039C86.1914 9.98828 86.8008 9.96875 87.3477 9.94531C87.9023 9.91406 88.3789 9.88672 88.7773 9.86328C89.2461 9.83203 89.6641 9.80078 90.0312 9.76953C90.6094 9.73828 91.1602 9.64453 91.6836 9.48828C92.2148 9.32422 92.6758 9.10156 93.0664 8.82031C93.457 8.53906 93.7578 8.19531 93.9688 7.78906C94.1875 7.38281 94.2695 6.91406 94.2148 6.38281C94.168 5.99219 94.0586 5.65234 93.8867 5.36328C93.7227 5.06641 93.5117 4.81641 93.2539 4.61328C93.0039 4.40234 92.7148 4.23438 92.3867 4.10938C92.0664 3.97656 91.7305 3.87891 91.3789 3.81641C91.0352 3.74609 90.6836 3.70703 90.3242 3.69922C89.9648 3.68359 89.6211 3.6875 89.293 3.71094ZM91.5195 11.6562C91.3242 11.6719 91.1523 11.6875 91.0039 11.7031C90.8633 11.7109 90.7383 11.7188 90.6289 11.7266C90.5273 11.7344 90.4336 11.7422 90.3477 11.75C90.2695 11.7578 90.1953 11.7617 90.125 11.7617C89.6953 11.8008 89.2344 11.8359 88.7422 11.8672C88.3203 11.8984 87.8359 11.9336 87.2891 11.9727C86.7422 12.0039 86.1758 12.0352 85.5898 12.0664L85.7656 17.2578C85.9844 17.2734 86.1992 17.2812 86.4102 17.2812C86.6211 17.2812 86.8281 17.2812 87.0312 17.2812C87.3984 17.2812 87.8594 17.2812 88.4141 17.2812C88.9766 17.2734 89.5625 17.2461 90.1719 17.1992C90.7891 17.1445 91.4023 17.0547 92.0117 16.9297C92.6289 16.7969 93.1797 16.6094 93.6641 16.3672C94.1562 16.1172 94.5469 15.7969 94.8359 15.4062C95.1328 15.0156 95.2695 14.5273 95.2461 13.9414C95.1758 13.5195 94.9961 13.1406 94.707 12.8047C94.582 12.6641 94.4258 12.5234 94.2383 12.3828C94.0586 12.2422 93.8398 12.1211 93.582 12.0195C93.3242 11.9102 93.0234 11.8242 92.6797 11.7617C92.3438 11.6914 91.957 11.6562 91.5195 11.6562ZM112.121 12.8164C112.121 13.8008 111.957 14.7109 111.629 15.5469C111.301 16.3828 110.852 17.1094 110.281 17.7266C109.711 18.3438 109.043 18.8242 108.277 19.168C107.512 19.5195 106.695 19.6953 105.828 19.6953C104.961 19.6953 104.148 19.5312 103.391 19.2031C102.633 18.875 101.969 18.4102 101.398 17.8086C100.836 17.1992 100.391 16.4727 100.062 15.6289C99.7344 14.7852 99.5703 13.8477 99.5703 12.8164C99.5703 11.7773 99.7344 10.8359 100.062 9.99219C100.391 9.14062 100.836 8.41406 101.398 7.8125C101.969 7.21094 102.633 6.74609 103.391 6.41797C104.148 6.08984 104.961 5.92578 105.828 5.92578C106.695 5.92578 107.512 6.10156 108.277 6.45312C109.043 6.79688 109.711 7.27734 110.281 7.89453C110.852 8.50391 111.301 9.23047 111.629 10.0742C111.957 10.9102 112.121 11.8242 112.121 12.8164ZM109.648 12.793C109.648 12.2305 109.578 11.6641 109.438 11.0938C109.297 10.5156 109.074 10 108.77 9.54688C108.465 9.08594 108.07 8.71094 107.586 8.42188C107.102 8.13281 106.516 7.98828 105.828 7.98828C105.164 7.98828 104.594 8.13281 104.117 8.42188C103.641 8.71094 103.25 9.08594 102.945 9.54688C102.641 10 102.418 10.5156 102.277 11.0938C102.137 11.6641 102.066 12.2305 102.066 12.793C102.066 13.3555 102.141 13.9219 102.289 14.4922C102.445 15.0625 102.68 15.5781 102.992 16.0391C103.305 16.4922 103.695 16.8633 104.164 17.1523C104.641 17.4414 105.195 17.5859 105.828 17.5859C106.492 17.5859 107.062 17.4414 107.539 17.1523C108.023 16.8633 108.422 16.4922 108.734 16.0391C109.047 15.5781 109.277 15.0625 109.426 14.4922C109.574 13.9219 109.648 13.3555 109.648 12.793ZM126.488 12.8164C126.488 13.8008 126.324 14.7109 125.996 15.5469C125.668 16.3828 125.219 17.1094 124.648 17.7266C124.078 18.3438 123.41 18.8242 122.645 19.168C121.879 19.5195 121.062 19.6953 120.195 19.6953C119.328 19.6953 118.516 19.5312 117.758 19.2031C117 18.875 116.336 18.4102 115.766 17.8086C115.203 17.1992 114.758 16.4727 114.43 15.6289C114.102 14.7852 113.938 13.8477 113.938 12.8164C113.938 11.7773 114.102 10.8359 114.43 9.99219C114.758 9.14062 115.203 8.41406 115.766 7.8125C116.336 7.21094 117 6.74609 117.758 6.41797C118.516 6.08984 119.328 5.92578 120.195 5.92578C121.062 5.92578 121.879 6.10156 122.645 6.45312C123.41 6.79688 124.078 7.27734 124.648 7.89453C125.219 8.50391 125.668 9.23047 125.996 10.0742C126.324 10.9102 126.488 11.8242 126.488 12.8164ZM124.016 12.793C124.016 12.2305 123.945 11.6641 123.805 11.0938C123.664 10.5156 123.441 10 123.137 9.54688C122.832 9.08594 122.438 8.71094 121.953 8.42188C121.469 8.13281 120.883 7.98828 120.195 7.98828C119.531 7.98828 118.961 8.13281 118.484 8.42188C118.008 8.71094 117.617 9.08594 117.312 9.54688C117.008 10 116.785 10.5156 116.645 11.0938C116.504 11.6641 116.434 12.2305 116.434 12.793C116.434 13.3555 116.508 13.9219 116.656 14.4922C116.812 15.0625 117.047 15.5781 117.359 16.0391C117.672 16.4922 118.062 16.8633 118.531 17.1523C119.008 17.4414 119.562 17.5859 120.195 17.5859C120.859 17.5859 121.43 17.4414 121.906 17.1523C122.391 16.8633 122.789 16.4922 123.102 16.0391C123.414 15.5781 123.645 15.0625 123.793 14.4922C123.941 13.9219 124.016 13.3555 124.016 12.793ZM132.195 0.734375L131.762 11.8555L137.879 5.70312L139.684 7.14453L135.312 11.4688L140.352 18.0195L138.289 19.5312L133.578 13.1914L131.633 15.0898L131.516 18.6172L128.996 18.7695L129.594 0.6875L132.195 0.734375Z" fill="#B4D51E"/>
</svg>
