<svg width="257" height="111" viewBox="0 0 257 111" fill="none" xmlns="http://www.w3.org/2000/svg">
<path fill-rule="evenodd" clip-rule="evenodd" d="M65.8302 31.0649C65.7835 18.6229 56.6329 8.57842 45.3921 8.63004C34.1503 8.68167 25.0763 18.8099 25.1229 31.2518C25.1696 43.6937 34.3193 53.7383 45.561 53.6866C56.8019 53.635 65.8768 43.5068 65.8302 31.0649ZM45.2907 -18.3841C70.0204 -18.4867 90.1608 3.61952 90.2744 30.9923C90.388 58.365 70.4318 80.6377 45.7021 80.7403C20.9716 80.8429 0.831993 58.7367 0.71839 31.3639C0.604787 3.9912 20.5602 -18.2814 45.2907 -18.3841Z" fill="#FFC735"/>
<path fill-rule="evenodd" clip-rule="evenodd" d="M117.12 36.0054C153.086 35.8403 182.12 3.43556 181.971 -36.373C181.943 -43.8368 187.387 -49.913 194.13 -49.9439C200.874 -49.9749 206.363 -43.9489 206.391 -36.4851C206.597 18.251 166.674 62.8081 117.221 63.0352C110.478 63.0662 104.988 57.0402 104.96 49.5764C104.932 42.1126 110.376 36.0364 117.12 36.0054Z" fill="#B4D51E"/>
<path d="M139.239 83.7622C190.431 83.5271 231.759 37.4024 231.546 -19.2593C231.518 -26.7146 236.956 -32.7839 243.692 -32.8148C250.427 -32.8457 255.911 -26.8266 255.939 -19.3713C256.207 52.2018 204.004 110.464 139.34 110.761C132.604 110.792 127.121 104.773 127.093 97.3177C127.065 89.8624 132.503 83.7931 139.239 83.7622Z" fill="#E5E0D5"/>
</svg>
