<svg width="22" height="21" viewBox="0 0 22 21" fill="none" xmlns="http://www.w3.org/2000/svg">
<path d="M21.4677 4.5986C21.1264 3.79655 20.6342 3.06975 20.0187 2.45886C19.4028 1.84616 18.6766 1.35925 17.8796 1.02462C17.0532 0.676245 16.1668 0.497928 15.2719 0.500018C14.0164 0.500018 12.7915 0.848889 11.727 1.50787C11.4724 1.6655 11.2305 1.83865 11.0013 2.0273C10.7721 1.83865 10.5301 1.6655 10.2755 1.50787C9.21101 0.848889 7.9861 0.500018 6.73063 0.500018C5.82659 0.500018 4.95057 0.675746 4.12293 1.02462C3.3233 1.36057 2.60261 1.84382 1.98379 2.45886C1.36751 3.06906 0.875206 3.79604 0.534783 4.5986C0.180808 5.43331 0 6.3197 0 7.23193C0 8.09248 0.173168 8.9892 0.516957 9.90144C0.804722 10.6638 1.21727 11.4546 1.74441 12.2531C2.57969 13.5168 3.7282 14.8347 5.15429 16.1708C7.51753 18.3855 9.85784 19.9153 9.95716 19.9773L10.5607 20.3701C10.8281 20.5433 11.1719 20.5433 11.4393 20.3701L12.0428 19.9773C12.1421 19.9127 14.4799 18.3855 16.8457 16.1708C18.2718 14.8347 19.4203 13.5168 20.2556 12.2531C20.7827 11.4546 21.1978 10.6638 21.483 9.90144C21.8268 8.9892 22 8.09248 22 7.23193C22.0025 6.3197 21.8217 5.43331 21.4677 4.5986ZM11.0013 18.326C11.0013 18.326 1.93541 12.4314 1.93541 7.23193C1.93541 4.5986 4.08218 2.46403 6.73063 2.46403C8.59219 2.46403 10.2067 3.5184 11.0013 5.0586C11.7958 3.5184 13.4103 2.46403 15.2719 2.46403C17.9203 2.46403 20.0671 4.5986 20.0671 7.23193C20.0671 12.4314 11.0013 18.326 11.0013 18.326Z" fill="#463C74"/>
</svg>
